<svg width="63" height="63" viewBox="0 0 63 63" fill="none" xmlns="http://www.w3.org/2000/svg">
<g clip-path="url(#clip0_5_68)">
<path d="M4.47779 31.4992C4.47779 42.1959 10.6938 51.439 19.7076 55.8199L6.81735 20.5018C5.27211 23.962 4.47487 27.7096 4.47779 31.4992ZM49.7429 30.1356C49.7429 26.796 48.5433 24.4831 47.5144 22.683C46.1446 20.457 44.8612 18.572 44.8612 16.3461C44.8612 13.862 46.7447 11.5497 49.3984 11.5497C49.5182 11.5497 49.6318 11.5646 49.7491 11.5713C44.9409 7.16678 38.5356 4.47757 31.5005 4.47757C22.06 4.47757 13.7543 9.32123 8.92244 16.6577C9.55644 16.6767 10.1544 16.6896 10.6614 16.6896C13.4879 16.6896 17.8632 16.3466 17.8632 16.3466C19.3199 16.2607 19.4916 18.4003 18.037 18.5725C18.037 18.5725 16.5725 18.7448 14.9436 18.8301L24.7842 48.1003L30.6984 30.3644L26.4877 18.8296C25.0325 18.7443 23.654 18.572 23.654 18.572C22.1978 18.4867 22.3685 16.2602 23.8247 16.3461C23.8247 16.3461 28.2873 16.689 30.9426 16.689C33.7686 16.689 38.1443 16.3461 38.1443 16.3461C39.6021 16.2602 39.7733 18.3998 38.3176 18.572C38.3176 18.572 36.8506 18.7443 35.2248 18.8296L44.9902 47.8782L47.6851 38.8712C48.8539 35.1335 49.7429 32.4489 49.7429 30.1356Z" fill="#00749A"/>
<path d="M31.9746 33.8629L23.8669 57.4221C26.3456 58.1526 28.9164 58.5235 31.5005 58.5235C34.6474 58.5235 37.6651 57.9789 40.4742 56.9917C40.3988 56.8737 40.3344 56.7491 40.2819 56.6194L31.9746 33.8629ZM55.2119 18.5345C55.3281 19.3952 55.3939 20.3197 55.3939 21.3131C55.3939 24.0553 54.8817 27.1379 53.3392 30.9922L45.0849 54.8573C53.1186 50.1725 58.5222 41.4688 58.5222 31.4992C58.5294 26.9677 57.3907 22.5078 55.2119 18.5345Z" fill="#00749A"/>
<path d="M31.5007 0C14.1319 0 0.000427246 14.1304 0.000427246 31.4992C0.000427246 48.8701 14.1314 63.0005 31.5007 63.0005C48.869 63.0005 63.0025 48.8706 63.0025 31.4992C63.002 14.1304 48.869 0 31.5007 0ZM31.5007 61.5562C14.9284 61.5562 1.44478 48.0726 1.44478 31.4992C1.44478 14.9274 14.9279 1.44487 31.5007 1.44487C48.0725 1.44487 61.555 14.9274 61.555 31.4992C61.555 48.0726 48.072 61.5562 31.5007 61.5562Z" fill="#00749A"/>
</g>
<defs>
<clipPath id="clip0_5_68">
<rect width="63" height="63" fill="white"/>
</clipPath>
</defs>
</svg>
